<?xml version="1.0" encoding="utf-8"?>
<!-- Generator: Adobe Illustrator 26.0.0, SVG Export Plug-In . SVG Version: 6.00 Build 0)  -->
<svg version="1.1" id="Layer_1" xmlns:serif="http://www.serif.com/"
	 xmlns="http://www.w3.org/2000/svg" xmlns:xlink="http://www.w3.org/1999/xlink" x="0px" y="0px" viewBox="0 0 2048 2732"
	 style="enable-background:new 0 0 2048 2732;" xml:space="preserve">
<style type="text/css">
	.st0{clip-path:url(#SVGID_00000173864560830994879880000006520768278380509112_);}
	.st1{filter:url(#Adobe_OpacityMaskFilter);}
	.st2{mask:url(#_x34_5c388e07c_00000167380216817619985720000008732088037057412007_);}
	.st3{clip-path:url(#SVGID_00000085958856419657484360000001596964909865803685_);}
	.st4{clip-path:url(#SVGID_00000108277542061122539590000012778675539809545905_);}
	.st5{filter:url(#Adobe_OpacityMaskFilter_00000085215082427744775470000014088440823404746170_);}
	.st6{mask:url(#_x35_390e54df2_00000008120941461431516950000016249589881542631339_);}
</style>
<g>
	<defs>
		<rect id="SVGID_1_" x="276.9" y="528.3" width="1542.7" height="1544.1"/>
	</defs>
	<clipPath id="SVGID_00000020397501887045242310000007197512557667506860_">
		<use xlink:href="#SVGID_1_"  style="overflow:visible;"/>
	</clipPath>
	<g style="clip-path:url(#SVGID_00000020397501887045242310000007197512557667506860_);">
		<defs>
			<filter id="Adobe_OpacityMaskFilter" filterUnits="userSpaceOnUse" x="276.7" y="528.3" width="1544.1" height="1544.1">
				<feColorMatrix  type="matrix" values="1 0 0 0 0  0 1 0 0 0  0 0 1 0 0  0 0 0 1 0"/>
			</filter>
		</defs>
		
			<mask maskUnits="userSpaceOnUse" x="276.7" y="528.3" width="1544.1" height="1544.1" id="_x34_5c388e07c_00000167380216817619985720000008732088037057412007_">
			<g class="st1">
				<g transform="matrix(0.183105, 0, 0, 0.183105, 46.953148, 37.499998)">
					
						<image style="overflow:visible;enable-background:new    ;" width="1536" height="1536" xlink:href="3E19AA4C.jpg"  transform="matrix(5.4901 0 0 5.4901 1254.5742 2680.3511)">
					</image>
				</g>
			</g>
		</mask>
		<g class="st2">
			<g transform="matrix(0.183105, 0, 0, 0.183105, 46.953148, 37.499998)">
				<g style="enable-background:new    ;">
					
						<image style="overflow:visible;" width="1536" height="1536" xlink:href="3E19AA4A.jpg"  transform="matrix(5.4901 0 0 5.4901 1254.5742 2680.3511)">
					</image>
				</g>
			</g>
		</g>
	</g>
</g>
<g>
	<defs>
		<rect id="SVGID_00000167364895350197718570000007053543235513412232_" x="1068.6" y="1522" width="238.8" height="144.1"/>
	</defs>
	<clipPath id="SVGID_00000127744157489690450370000010345961409872938171_">
		<use xlink:href="#SVGID_00000167364895350197718570000007053543235513412232_"  style="overflow:visible;"/>
	</clipPath>
	<g style="clip-path:url(#SVGID_00000127744157489690450370000010345961409872938171_);">
		<path d="M1124.9,1559.6h45v3.6H1129v26.9h38.5v3.6H1129v29.6h41.4v3.6h-45.5V1559.6z M1174,1559.6h4.8l21.2,29.6l21.7-29.6
			l29.5-37.6l-48.4,70.2l25,34.5h-5l-22.7-31.4l-22.8,31.4h-4.9l25.1-34.5L1174,1559.6z M1229.5,1563.2v-3.6h51.3v3.6h-23.7v63.7
			h-4.1v-63.7H1229.5z M1068.6,1559.6h5.2l71.2,106.4l-29.4-39.2l-42.6-62.1l-0.2,62.1h-4.1V1559.6z M1280.4,1622.2
			c-0.9,0-1.5-0.7-1.5-1.5c0-0.8,0.6-1.5,1.5-1.5c0.8,0,1.5,0.7,1.5,1.5C1281.8,1621.5,1281.2,1622.2,1280.4,1622.2z M1284.4,1618.2
			h2.2c0,1.2,0.9,2,2.2,2c1.4,0,2.3-0.9,2.3-2.5v-10.3h2.3v10.3c0,2.9-1.7,4.6-4.5,4.6C1286.2,1622.4,1284.4,1620.7,1284.4,1618.2z
			 M1296.3,1618.1h2.2c0.2,1.4,1.5,2.3,3.5,2.3c1.8,0,3.1-0.9,3.1-2.2c0-1.1-0.8-1.8-2.8-2.2l-1.9-0.5c-2.6-0.6-3.8-1.9-3.8-4
			c0-2.6,2.1-4.3,5.3-4.3c2.9,0,5.1,1.7,5.2,4.2h-2.2c-0.2-1.3-1.4-2.2-3.1-2.2c-1.8,0-3,0.9-3,2.2c0,1,0.8,1.6,2.7,2.1l1.6,0.4
			c3,0.7,4.2,1.9,4.2,4.1c0,2.8-2.1,4.5-5.6,4.5C1298.6,1622.4,1296.4,1620.7,1296.3,1618.1z"/>
	</g>
</g>
<g>
	<defs>
		<rect id="SVGID_00000057862458262886103460000001750720218138338736_" x="839.4" y="923.3" width="1033.5" height="1082.9"/>
	</defs>
	<clipPath id="SVGID_00000011752755577216834800000017969479187436902320_">
		<use xlink:href="#SVGID_00000057862458262886103460000001750720218138338736_"  style="overflow:visible;"/>
	</clipPath>
	<g style="clip-path:url(#SVGID_00000011752755577216834800000017969479187436902320_);">
		<defs>
			
				<filter id="Adobe_OpacityMaskFilter_00000135668951399645320480000004518468128090854034_" filterUnits="userSpaceOnUse" x="839.4" y="923.3" width="1033.5" height="1082.9">
				<feColorMatrix  type="matrix" values="1 0 0 0 0  0 1 0 0 0  0 0 1 0 0  0 0 0 1 0"/>
			</filter>
		</defs>
		
			<mask maskUnits="userSpaceOnUse" x="839.4" y="923.3" width="1033.5" height="1082.9" id="_x35_390e54df2_00000008120941461431516950000016249589881542631339_">
			<g style="filter:url(#Adobe_OpacityMaskFilter_00000135668951399645320480000004518468128090854034_);">
				<g transform="matrix(0.166152, 0, 0, 0.166315, 149.452274, 109.443509)">
					
						<image style="overflow:visible;enable-background:new    ;" width="1133" height="1186" xlink:href="3E19AA4B.jpg"  transform="matrix(5.4901 0 0 5.4901 4152.5005 4893.2241)">
					</image>
				</g>
			</g>
		</mask>
		<g class="st6">
			<g transform="matrix(0.166152, 0, 0, 0.166315, 149.452274, 109.443509)">
				<g style="enable-background:new    ;">
					
						<image style="overflow:visible;" width="1133" height="1186" xlink:href="3E19AA55.jpg"  transform="matrix(5.4901 0 0 5.4901 4152.5005 4893.2241)">
					</image>
				</g>
			</g>
		</g>
	</g>
</g>
</svg>
